<svg width="243" height="58" viewBox="0 0 243 58" fill="none" xmlns="http://www.w3.org/2000/svg">
<path d="M14.998 57.608C19.482 57.608 22.8513 56.4427 25.106 54.112C27.386 51.7813 28.526 48.45 28.526 44.118C28.526 42.0913 28.2473 40.2547 27.69 38.608C27.1327 36.936 26.1827 35.1373 24.84 33.212C23.5227 31.2613 21.6987 28.88 19.368 26.068C17.62 23.94 16.1507 22.154 14.96 20.71C13.7947 19.2407 12.908 17.898 12.3 16.682C11.7173 15.4407 11.426 14.1233 11.426 12.73C11.426 9.614 12.6673 8.056 15.15 8.056C18.0633 8.056 19.52 10.7287 19.52 16.074L28.526 15.39C28.526 10.5007 27.31 6.75133 24.878 4.142C22.446 1.53266 19.1653 0.329331 15.036 0.531998C12.3253 0.658664 10.02 1.33 8.12 2.546C6.24533 3.762 4.814 5.32 3.826 7.22C2.86333 9.09466 2.382 11.1213 2.382 13.3C2.382 15.7573 3.05333 18.392 4.396 21.204C5.73867 23.9907 7.854 27.1573 10.742 30.704C12.718 33.136 14.2887 35.0867 15.454 36.556C16.6447 38 17.5187 39.1653 18.076 40.052C18.6587 40.9387 19.0387 41.686 19.216 42.294C19.4187 42.902 19.52 43.5733 19.52 44.308C19.52 48.1587 17.9747 50.084 14.884 50.084C13.1867 50.084 11.958 49.3873 11.198 47.994C10.438 46.6007 10.058 44.1433 10.058 40.622L1.014 41.306C0.735333 46.6513 1.78667 50.7047 4.168 53.466C6.54933 56.2273 10.1593 57.608 14.998 57.608ZM33.3835 57H42.6175V32.68H51.0535V57H60.2875V1.14H51.0535V24.244H42.6175V1.14H33.3835V57ZM78.781 57.608C82.4797 57.608 85.4943 56.4807 87.825 54.226C90.181 51.9713 91.3337 48.9313 91.283 45.106V13.034C91.283 9.18333 90.1177 6.14333 87.787 3.914C85.4817 1.65933 82.4797 0.531998 78.781 0.531998C75.1077 0.531998 72.1183 1.65933 69.813 3.914C67.533 6.14333 66.4183 9.18333 66.469 13.034V45.106C66.469 48.9567 67.5963 52.0093 69.851 54.264C72.131 56.4933 75.1077 57.608 78.781 57.608ZM78.743 49.628C76.4123 49.628 75.247 48.1207 75.247 45.106V13.034C75.247 10.0193 76.4123 8.512 78.743 8.512C81.099 8.512 82.277 10.0193 82.277 13.034V45.106C82.277 48.1207 81.099 49.628 78.743 49.628ZM98.5475 57H120.588V48.564H107.782V33.212H116.978V24.244H107.782V9.576H120.588V1.14H98.5475V57ZM125.637 57H148.019V49.4H134.871V1.14H125.637V57ZM150.065 57H158.995L160.857 45.6H171.079L172.979 57H181.909L171.687 1.14H160.249L150.065 57ZM162.301 36.936L165.303 21.09L165.645 19.038H166.329L166.671 21.09L169.635 36.936H162.301ZM185.977 57H208.359V49.4H195.211V1.14H185.977V57ZM210.405 57H219.335L221.197 45.6H231.419L233.319 57H242.249L232.027 1.14H220.589L210.405 57ZM222.641 36.936L225.643 21.09L225.985 19.038H226.669L227.011 21.09L229.975 36.936H222.641Z" fill="black"/>
</svg>
