<svg width="239" height="54" viewBox="0 0 239 54" fill="none" xmlns="http://www.w3.org/2000/svg">
<path d="M13.9455 53.568C18.1345 53.568 21.2822 52.4793 23.3885 50.302C25.5185 48.1247 26.5835 45.0125 26.5835 40.9655C26.5835 39.0722 26.3232 37.3563 25.8025 35.818C25.2818 34.256 24.3943 32.5757 23.14 30.777C21.9093 28.9547 20.2053 26.73 18.028 24.103C16.395 22.115 15.0223 20.4465 13.91 19.0975C12.8213 17.7248 11.993 16.4705 11.425 15.3345C10.8807 14.1748 10.6085 12.9442 10.6085 11.6425C10.6085 8.7315 11.7682 7.276 14.0875 7.276C16.8092 7.276 18.17 9.77283 18.17 14.7665L26.5835 14.1275C26.5835 9.55983 25.4475 6.05716 23.1755 3.6195C20.9035 1.18183 17.8387 0.0576641 13.981 0.246998C11.4487 0.365331 9.295 0.992497 7.52 2.1285C5.76867 3.2645 4.4315 4.72 3.5085 6.495C2.60917 8.24633 2.1595 10.1397 2.1595 12.175C2.1595 14.4707 2.78667 16.932 4.041 19.559C5.29533 22.1623 7.2715 25.1207 9.9695 28.434C11.8155 30.706 13.2828 32.5283 14.3715 33.901C15.4838 35.25 16.3003 36.3387 16.821 37.167C17.3653 37.9953 17.7203 38.6935 17.886 39.2615C18.0753 39.8295 18.17 40.4567 18.17 41.143C18.17 44.7403 16.7263 46.539 13.839 46.539C12.2533 46.539 11.1055 45.8882 10.3955 44.5865C9.6855 43.2848 9.3305 40.9892 9.3305 37.6995L0.8815 38.3385C0.621167 43.3322 1.60333 47.1188 3.828 49.6985C6.05267 52.2782 9.42517 53.568 13.9455 53.568ZM31.1214 53H39.7479V30.28H47.6289V53H56.2554V0.814999H47.6289V22.399H39.7479V0.814999H31.1214V53ZM73.5323 53.568C76.9876 53.568 79.8039 52.5148 81.9813 50.4085C84.1823 48.3022 85.2591 45.4622 85.2118 41.8885V11.9265C85.2118 8.32917 84.1231 5.48917 81.9458 3.4065C79.7921 1.30016 76.9876 0.246998 73.5323 0.246998C70.1006 0.246998 67.3079 1.30016 65.1543 3.4065C63.0243 5.48917 61.9829 8.32917 62.0303 11.9265V41.8885C62.0303 45.4858 63.0834 48.3377 65.1898 50.444C67.3198 52.5267 70.1006 53.568 73.5323 53.568ZM73.4968 46.113C71.3194 46.113 70.2308 44.7048 70.2308 41.8885V11.9265C70.2308 9.11017 71.3194 7.702 73.4968 7.702C75.6978 7.702 76.7983 9.11017 76.7983 11.9265V41.8885C76.7983 44.7048 75.6978 46.113 73.4968 46.113ZM91.9984 53H112.588V45.119H100.625V30.777H109.216V22.399H100.625V8.696H112.588V0.814999H91.9984V53ZM117.306 53H138.215V45.9H125.932V0.814999H117.306V53ZM140.127 53H148.469L150.209 42.35H159.758L161.533 53H169.876L160.326 0.814999H149.641L140.127 53ZM151.558 34.256L154.362 19.4525L154.682 17.5355H155.321L155.64 19.4525L158.409 34.256H151.558ZM173.676 53H194.586V45.9H182.303V0.814999H173.676V53ZM196.497 53H204.84L206.579 42.35H216.129L217.904 53H226.246L216.697 0.814999H206.011L196.497 53ZM207.928 34.256L210.733 19.4525L211.052 17.5355H211.691L212.011 19.4525L214.78 34.256H207.928ZM232.588 53.104C233.394 53.104 234.15 52.9783 234.857 52.727C235.567 52.4713 236.191 52.1203 236.729 51.674C237.266 51.2233 237.686 50.7033 237.99 50.114C238.297 49.5247 238.451 48.8963 238.451 48.229C238.451 47.5573 238.297 46.9268 237.99 46.3375C237.686 45.7482 237.266 45.2282 236.729 44.7775C236.191 44.3268 235.567 43.9758 234.857 43.7245C234.15 43.4688 233.394 43.341 232.588 43.341C231.787 43.341 231.033 43.4688 230.326 43.7245C229.62 43.9802 228.998 44.3333 228.461 44.784C227.928 45.2303 227.51 45.7482 227.206 46.3375C226.903 46.9268 226.751 47.5573 226.751 48.229C226.751 48.8963 226.903 49.5247 227.206 50.114C227.51 50.7033 227.928 51.2233 228.461 51.674C228.998 52.1203 229.618 52.4713 230.32 52.727C231.026 52.9783 231.782 53.104 232.588 53.104ZM232.588 52.35C231.891 52.35 231.236 52.246 230.625 52.038C230.019 51.8257 229.483 51.531 229.02 51.154C228.556 50.777 228.194 50.3393 227.934 49.841C227.674 49.3427 227.544 48.8053 227.544 48.229C227.544 47.6527 227.674 47.1153 227.934 46.617C228.194 46.1143 228.556 45.6745 229.02 45.2975C229.483 44.9205 230.019 44.6258 230.625 44.4135C231.236 44.2012 231.891 44.095 232.588 44.095C233.286 44.095 233.94 44.2012 234.551 44.4135C235.167 44.6258 235.706 44.9227 236.17 45.304C236.638 45.681 237.004 46.1208 237.268 46.6235C237.533 47.1218 237.665 47.657 237.665 48.229C237.665 48.801 237.533 49.3362 237.268 49.8345C237.004 50.3328 236.638 50.7705 236.17 51.1475C235.706 51.5245 235.167 51.8192 234.551 52.0315C233.94 52.2438 233.286 52.35 232.588 52.35ZM232.575 51.154C232.996 51.154 233.325 51.05 233.563 50.842C233.802 50.6297 233.921 50.3177 233.921 49.906V49.113H233.063V49.906C233.063 50.0057 233.019 50.0988 232.933 50.1855C232.85 50.2678 232.736 50.309 232.588 50.309C232.458 50.309 232.352 50.2743 232.27 50.205C232.192 50.1313 232.153 50.0317 232.153 49.906V46.539C232.153 46.4133 232.194 46.3115 232.276 46.2335C232.359 46.1555 232.463 46.1165 232.588 46.1165C232.727 46.1165 232.837 46.1598 232.92 46.2465C233.006 46.3332 233.05 46.4307 233.05 46.539V47.332H233.94V46.539C233.94 46.1533 233.815 45.85 233.563 45.629C233.312 45.4037 232.983 45.291 232.575 45.291C232.155 45.291 231.813 45.408 231.548 45.642C231.288 45.876 231.158 46.175 231.158 46.539V49.906C231.158 50.2873 231.284 50.5907 231.535 50.816C231.787 51.0413 232.133 51.154 232.575 51.154Z" fill="black"/>
</svg>
