<svg width="250" height="100" viewBox="0 0 250 100" fill="none" xmlns="http://www.w3.org/2000/svg">
<g clip-path="url(#clip0)">
<rect width="250" height="100" fill="white"/>
<g filter="url(#filter0_bf)">
<path d="M21.9455 74.568C26.1345 74.568 29.2822 73.4793 31.3885 71.302C33.5185 69.1247 34.5835 66.0125 34.5835 61.9655C34.5835 60.0722 34.3232 58.3563 33.8025 56.818C33.2818 55.256 32.3943 53.5757 31.14 51.777C29.9093 49.9547 28.2053 47.73 26.028 45.103C24.395 43.115 23.0223 41.4465 21.91 40.0975C20.8213 38.7248 19.993 37.4705 19.425 36.3345C18.8807 35.1748 18.6085 33.9442 18.6085 32.6425C18.6085 29.7315 19.7682 28.276 22.0875 28.276C24.8092 28.276 26.17 30.7728 26.17 35.7665L34.5835 35.1275C34.5835 30.5598 33.4475 27.0572 31.1755 24.6195C28.9035 22.1818 25.8387 21.0577 21.981 21.247C19.4487 21.3653 17.295 21.9925 15.52 23.1285C13.7687 24.2645 12.4315 25.72 11.5085 27.495C10.6092 29.2463 10.1595 31.1397 10.1595 33.175C10.1595 35.4707 10.7867 37.932 12.041 40.559C13.2953 43.1623 15.2715 46.1207 17.9695 49.434C19.8155 51.706 21.2828 53.5283 22.3715 54.901C23.4838 56.25 24.3003 57.3387 24.821 58.167C25.3653 58.9953 25.7203 59.6935 25.886 60.2615C26.0753 60.8295 26.17 61.4567 26.17 62.143C26.17 65.7403 24.7263 67.539 21.839 67.539C20.2533 67.539 19.1055 66.8882 18.3955 65.5865C17.6855 64.2848 17.3305 61.9892 17.3305 58.6995L8.8815 59.3385C8.62117 64.3322 9.60333 68.1188 11.828 70.6985C14.0527 73.2782 17.4252 74.568 21.9455 74.568ZM39.1214 74H47.7479V51.28H55.6289V74H64.2554V21.815H55.6289V43.399H47.7479V21.815H39.1214V74ZM81.5323 74.568C84.9876 74.568 87.8039 73.5148 89.9813 71.4085C92.1823 69.3022 93.2591 66.4622 93.2118 62.8885V32.9265C93.2118 29.3292 92.1231 26.4892 89.9458 24.4065C87.7921 22.3002 84.9876 21.247 81.5323 21.247C78.1006 21.247 75.3079 22.3002 73.1543 24.4065C71.0243 26.4892 69.9829 29.3292 70.0303 32.9265V62.8885C70.0303 66.4858 71.0834 69.3377 73.1898 71.444C75.3198 73.5267 78.1006 74.568 81.5323 74.568ZM81.4968 67.113C79.3194 67.113 78.2308 65.7048 78.2308 62.8885V32.9265C78.2308 30.1102 79.3194 28.702 81.4968 28.702C83.6978 28.702 84.7983 30.1102 84.7983 32.9265V62.8885C84.7983 65.7048 83.6978 67.113 81.4968 67.113ZM99.9984 74H120.588V66.119H108.625V51.777H117.216V43.399H108.625V29.696H120.588V21.815H99.9984V74ZM125.306 74H146.215V66.9H133.932V21.815H125.306V74ZM148.127 74H156.469L158.209 63.35H167.758L169.533 74H177.876L168.326 21.815H157.641L148.127 74ZM159.558 55.256L162.362 40.4525L162.682 38.5355H163.321L163.64 40.4525L166.409 55.256H159.558ZM181.676 74H202.586V66.9H190.303V21.815H181.676V74ZM204.497 74H212.84L214.579 63.35H224.129L225.904 74H234.246L224.697 21.815H214.011L204.497 74ZM215.928 55.256L218.733 40.4525L219.052 38.5355H219.691L220.011 40.4525L222.78 55.256H215.928ZM240.588 74.104C241.394 74.104 242.15 73.9783 242.857 73.727C243.567 73.4713 244.191 73.1203 244.729 72.674C245.266 72.2233 245.686 71.7033 245.99 71.114C246.297 70.5247 246.451 69.8963 246.451 69.229C246.451 68.5573 246.297 67.9268 245.99 67.3375C245.686 66.7482 245.266 66.2282 244.729 65.7775C244.191 65.3268 243.567 64.9758 242.857 64.7245C242.15 64.4688 241.394 64.341 240.588 64.341C239.787 64.341 239.033 64.4688 238.326 64.7245C237.62 64.9802 236.998 65.3333 236.461 65.784C235.928 66.2303 235.51 66.7482 235.206 67.3375C234.903 67.9268 234.751 68.5573 234.751 69.229C234.751 69.8963 234.903 70.5247 235.206 71.114C235.51 71.7033 235.928 72.2233 236.461 72.674C236.998 73.1203 237.618 73.4713 238.32 73.727C239.026 73.9783 239.782 74.104 240.588 74.104ZM240.588 73.35C239.891 73.35 239.236 73.246 238.625 73.038C238.019 72.8257 237.483 72.531 237.02 72.154C236.556 71.777 236.194 71.3393 235.934 70.841C235.674 70.3427 235.544 69.8053 235.544 69.229C235.544 68.6527 235.674 68.1153 235.934 67.617C236.194 67.1143 236.556 66.6745 237.02 66.2975C237.483 65.9205 238.019 65.6258 238.625 65.4135C239.236 65.2012 239.891 65.095 240.588 65.095C241.286 65.095 241.94 65.2012 242.551 65.4135C243.167 65.6258 243.706 65.9227 244.17 66.304C244.638 66.681 245.004 67.1208 245.268 67.6235C245.533 68.1218 245.665 68.657 245.665 69.229C245.665 69.801 245.533 70.3362 245.268 70.8345C245.004 71.3328 244.638 71.7705 244.17 72.1475C243.706 72.5245 243.167 72.8192 242.551 73.0315C241.94 73.2438 241.286 73.35 240.588 73.35ZM240.575 72.154C240.996 72.154 241.325 72.05 241.563 71.842C241.802 71.6297 241.921 71.3177 241.921 70.906V70.113H241.063V70.906C241.063 71.0057 241.019 71.0988 240.933 71.1855C240.85 71.2678 240.736 71.309 240.588 71.309C240.458 71.309 240.352 71.2743 240.27 71.205C240.192 71.1313 240.153 71.0317 240.153 70.906V67.539C240.153 67.4133 240.194 67.3115 240.276 67.2335C240.359 67.1555 240.463 67.1165 240.588 67.1165C240.727 67.1165 240.837 67.1598 240.92 67.2465C241.006 67.3332 241.05 67.4307 241.05 67.539V68.332H241.94V67.539C241.94 67.1533 241.815 66.85 241.563 66.629C241.312 66.4037 240.983 66.291 240.575 66.291C240.155 66.291 239.813 66.408 239.548 66.642C239.288 66.876 239.158 67.175 239.158 67.539V70.906C239.158 71.2873 239.284 71.5907 239.535 71.816C239.787 72.0413 240.133 72.154 240.575 72.154Z" fill="black"/>
</g>
<g filter="url(#filter1_bf)">
<path d="M13.9455 74.568C18.1345 74.568 21.2822 73.4793 23.3885 71.302C25.5185 69.1247 26.5835 66.0125 26.5835 61.9655C26.5835 60.0722 26.3232 58.3563 25.8025 56.818C25.2818 55.256 24.3943 53.5757 23.14 51.777C21.9093 49.9547 20.2053 47.73 18.028 45.103C16.395 43.115 15.0223 41.4465 13.91 40.0975C12.8213 38.7248 11.993 37.4705 11.425 36.3345C10.8807 35.1748 10.6085 33.9442 10.6085 32.6425C10.6085 29.7315 11.7682 28.276 14.0875 28.276C16.8092 28.276 18.17 30.7728 18.17 35.7665L26.5835 35.1275C26.5835 30.5598 25.4475 27.0572 23.1755 24.6195C20.9035 22.1818 17.8387 21.0577 13.981 21.247C11.4487 21.3653 9.295 21.9925 7.52 23.1285C5.76867 24.2645 4.4315 25.72 3.5085 27.495C2.60917 29.2463 2.1595 31.1397 2.1595 33.175C2.1595 35.4707 2.78667 37.932 4.041 40.559C5.29533 43.1623 7.2715 46.1207 9.9695 49.434C11.8155 51.706 13.2828 53.5283 14.3715 54.901C15.4838 56.25 16.3003 57.3387 16.821 58.167C17.3653 58.9953 17.7203 59.6935 17.886 60.2615C18.0753 60.8295 18.17 61.4567 18.17 62.143C18.17 65.7403 16.7263 67.539 13.839 67.539C12.2533 67.539 11.1055 66.8882 10.3955 65.5865C9.6855 64.2848 9.3305 61.9892 9.3305 58.6995L0.8815 59.3385C0.621167 64.3322 1.60333 68.1188 3.828 70.6985C6.05267 73.2782 9.42517 74.568 13.9455 74.568ZM31.1214 74H39.7479V51.28H47.6289V74H56.2554V21.815H47.6289V43.399H39.7479V21.815H31.1214V74ZM73.5323 74.568C76.9876 74.568 79.8039 73.5148 81.9813 71.4085C84.1823 69.3022 85.2591 66.4622 85.2118 62.8885V32.9265C85.2118 29.3292 84.1231 26.4892 81.9458 24.4065C79.7921 22.3002 76.9876 21.247 73.5323 21.247C70.1006 21.247 67.3079 22.3002 65.1543 24.4065C63.0243 26.4892 61.9829 29.3292 62.0303 32.9265V62.8885C62.0303 66.4858 63.0834 69.3377 65.1898 71.444C67.3198 73.5267 70.1006 74.568 73.5323 74.568ZM73.4968 67.113C71.3194 67.113 70.2308 65.7048 70.2308 62.8885V32.9265C70.2308 30.1102 71.3194 28.702 73.4968 28.702C75.6978 28.702 76.7983 30.1102 76.7983 32.9265V62.8885C76.7983 65.7048 75.6978 67.113 73.4968 67.113ZM91.9984 74H112.588V66.119H100.625V51.777H109.216V43.399H100.625V29.696H112.588V21.815H91.9984V74ZM117.306 74H138.215V66.9H125.932V21.815H117.306V74ZM140.127 74H148.469L150.209 63.35H159.758L161.533 74H169.876L160.326 21.815H149.641L140.127 74ZM151.558 55.256L154.362 40.4525L154.682 38.5355H155.321L155.64 40.4525L158.409 55.256H151.558ZM173.676 74H194.586V66.9H182.303V21.815H173.676V74ZM196.497 74H204.84L206.579 63.35H216.129L217.904 74H226.246L216.697 21.815H206.011L196.497 74ZM207.928 55.256L210.733 40.4525L211.052 38.5355H211.691L212.011 40.4525L214.78 55.256H207.928ZM232.588 74.104C233.394 74.104 234.15 73.9783 234.857 73.727C235.567 73.4713 236.191 73.1203 236.729 72.674C237.266 72.2233 237.686 71.7033 237.99 71.114C238.297 70.5247 238.451 69.8963 238.451 69.229C238.451 68.5573 238.297 67.9268 237.99 67.3375C237.686 66.7482 237.266 66.2282 236.729 65.7775C236.191 65.3268 235.567 64.9758 234.857 64.7245C234.15 64.4688 233.394 64.341 232.588 64.341C231.787 64.341 231.033 64.4688 230.326 64.7245C229.62 64.9802 228.998 65.3333 228.461 65.784C227.928 66.2303 227.51 66.7482 227.206 67.3375C226.903 67.9268 226.751 68.5573 226.751 69.229C226.751 69.8963 226.903 70.5247 227.206 71.114C227.51 71.7033 227.928 72.2233 228.461 72.674C228.998 73.1203 229.618 73.4713 230.32 73.727C231.026 73.9783 231.782 74.104 232.588 74.104ZM232.588 73.35C231.891 73.35 231.236 73.246 230.625 73.038C230.019 72.8257 229.483 72.531 229.02 72.154C228.556 71.777 228.194 71.3393 227.934 70.841C227.674 70.3427 227.544 69.8053 227.544 69.229C227.544 68.6527 227.674 68.1153 227.934 67.617C228.194 67.1143 228.556 66.6745 229.02 66.2975C229.483 65.9205 230.019 65.6258 230.625 65.4135C231.236 65.2012 231.891 65.095 232.588 65.095C233.286 65.095 233.94 65.2012 234.551 65.4135C235.167 65.6258 235.706 65.9227 236.17 66.304C236.638 66.681 237.004 67.1208 237.268 67.6235C237.533 68.1218 237.665 68.657 237.665 69.229C237.665 69.801 237.533 70.3362 237.268 70.8345C237.004 71.3328 236.638 71.7705 236.17 72.1475C235.706 72.5245 235.167 72.8192 234.551 73.0315C233.94 73.2438 233.286 73.35 232.588 73.35ZM232.575 72.154C232.996 72.154 233.325 72.05 233.563 71.842C233.802 71.6297 233.921 71.3177 233.921 70.906V70.113H233.063V70.906C233.063 71.0057 233.019 71.0988 232.933 71.1855C232.85 71.2678 232.736 71.309 232.588 71.309C232.458 71.309 232.352 71.2743 232.27 71.205C232.192 71.1313 232.153 71.0317 232.153 70.906V67.539C232.153 67.4133 232.194 67.3115 232.276 67.2335C232.359 67.1555 232.463 67.1165 232.588 67.1165C232.727 67.1165 232.837 67.1598 232.92 67.2465C233.006 67.3332 233.05 67.4307 233.05 67.539V68.332H233.94V67.539C233.94 67.1533 233.815 66.85 233.563 66.629C233.312 66.4037 232.983 66.291 232.575 66.291C232.155 66.291 231.813 66.408 231.548 66.642C231.288 66.876 231.158 67.175 231.158 67.539V70.906C231.158 71.2873 231.284 71.5907 231.535 71.816C231.787 72.0413 232.133 72.154 232.575 72.154Z" fill="#E4E2E2"/>
</g>
<g filter="url(#filter2_i)">
<path d="M18.5245 73.552C22.5955 73.552 25.6545 72.494 27.7015 70.378C29.7715 68.262 30.8065 65.2375 30.8065 61.3045C30.8065 59.4645 30.5535 57.797 30.0475 56.302C29.5415 54.784 28.679 53.151 27.46 51.403C26.264 49.632 24.608 47.47 22.492 44.917C20.905 42.985 19.571 41.3635 18.49 40.0525C17.432 38.7185 16.627 37.4995 16.075 36.3955C15.546 35.2685 15.2815 34.0725 15.2815 32.8075C15.2815 29.9785 16.4085 28.564 18.6625 28.564C21.3075 28.564 22.63 30.9905 22.63 35.8435L30.8065 35.2225C30.8065 30.7835 29.7025 27.3795 27.4945 25.0105C25.2865 22.6415 22.308 21.549 18.559 21.733C16.098 21.848 14.005 22.4575 12.28 23.5615C10.578 24.6655 9.2785 26.08 8.3815 27.805C7.5075 29.507 7.0705 31.347 7.0705 33.325C7.0705 35.556 7.68 37.948 8.899 40.501C10.118 43.031 12.0385 45.906 14.6605 49.126C16.4545 51.334 17.8805 53.105 18.9385 54.439C20.0195 55.75 20.813 56.808 21.319 57.613C21.848 58.418 22.193 59.0965 22.354 59.6485C22.538 60.2005 22.63 60.81 22.63 61.477C22.63 64.973 21.227 66.721 18.421 66.721C16.88 66.721 15.7645 66.0885 15.0745 64.8235C14.3845 63.5585 14.0395 61.3275 14.0395 58.1305L5.8285 58.7515C5.5755 63.6045 6.53 67.2845 8.692 69.7915C10.854 72.2985 14.1315 73.552 18.5245 73.552ZM35.2166 73H43.6001V50.92H51.2591V73H59.6426V22.285H51.2591V43.261H43.6001V22.285H35.2166V73ZM76.4328 73.552C79.7908 73.552 82.5278 72.5285 84.6438 70.4815C86.7828 68.4345 87.8293 65.6745 87.7833 62.2015V33.0835C87.7833 29.5875 86.7253 26.8275 84.6093 24.8035C82.5163 22.7565 79.7908 21.733 76.4328 21.733C73.0978 21.733 70.3838 22.7565 68.2908 24.8035C66.2208 26.8275 65.2088 29.5875 65.2548 33.0835V62.2015C65.2548 65.6975 66.2783 68.469 68.3253 70.516C70.3953 72.54 73.0978 73.552 76.4328 73.552ZM76.3983 66.307C74.2823 66.307 73.2243 64.9385 73.2243 62.2015V33.0835C73.2243 30.3465 74.2823 28.978 76.3983 28.978C78.5373 28.978 79.6068 30.3465 79.6068 33.0835V62.2015C79.6068 64.9385 78.5373 66.307 76.3983 66.307ZM94.3787 73H114.389V65.341H102.762V51.403H111.111V43.261H102.762V29.944H114.389V22.285H94.3787V73ZM118.973 73H139.294V66.1H127.357V22.285H118.973V73ZM141.152 73H149.259L150.95 62.65H160.23L161.955 73H170.063L160.782 22.285H150.398L141.152 73ZM152.261 54.784L154.986 40.3975L155.297 38.5345H155.918L156.228 40.3975L158.919 54.784H152.261ZM173.756 73H194.076V66.1H182.139V22.285H173.756V73ZM195.934 73H204.041L205.732 62.65H215.012L216.737 73H224.845L215.564 22.285H205.18L195.934 73ZM207.043 54.784L209.768 40.3975L210.079 38.5345H210.7L211.01 40.3975L213.701 54.784H207.043ZM231.186 73.104C231.992 73.104 232.748 72.9783 233.454 72.727C234.165 72.4713 234.789 72.1203 235.326 71.674C235.864 71.2233 236.284 70.7033 236.587 70.114C236.895 69.5247 237.049 68.8963 237.049 68.229C237.049 67.5573 236.895 66.9268 236.587 66.3375C236.284 65.7482 235.864 65.2282 235.326 64.7775C234.789 64.3268 234.165 63.9758 233.454 63.7245C232.748 63.4688 231.992 63.341 231.186 63.341C230.384 63.341 229.63 63.4688 228.924 63.7245C228.218 63.9802 227.596 64.3333 227.058 64.784C226.525 65.2303 226.107 65.7482 225.804 66.3375C225.501 66.9268 225.349 67.5573 225.349 68.229C225.349 68.8963 225.501 69.5247 225.804 70.114C226.107 70.7033 226.525 71.2233 227.058 71.674C227.596 72.1203 228.215 72.4713 228.917 72.727C229.624 72.9783 230.38 73.104 231.186 73.104ZM231.186 72.35C230.488 72.35 229.834 72.246 229.223 72.038C228.616 71.8257 228.081 71.531 227.617 71.154C227.154 70.777 226.792 70.3393 226.532 69.841C226.272 69.3427 226.142 68.8053 226.142 68.229C226.142 67.6527 226.272 67.1153 226.532 66.617C226.792 66.1143 227.154 65.6745 227.617 65.2975C228.081 64.9205 228.616 64.6258 229.223 64.4135C229.834 64.2012 230.488 64.095 231.186 64.095C231.884 64.095 232.538 64.2012 233.149 64.4135C233.764 64.6258 234.304 64.9227 234.767 65.304C235.235 65.681 235.602 66.1208 235.866 66.6235C236.13 67.1218 236.262 67.657 236.262 68.229C236.262 68.801 236.13 69.3362 235.866 69.8345C235.602 70.3328 235.235 70.7705 234.767 71.1475C234.304 71.5245 233.764 71.8192 233.149 72.0315C232.538 72.2438 231.884 72.35 231.186 72.35ZM231.173 71.154C231.593 71.154 231.923 71.05 232.161 70.842C232.399 70.6297 232.518 70.3177 232.518 69.906V69.113H231.66V69.906C231.66 70.0057 231.617 70.0988 231.53 70.1855C231.448 70.2678 231.333 70.309 231.186 70.309C231.056 70.309 230.95 70.2743 230.867 70.205C230.789 70.1313 230.75 70.0317 230.75 69.906V66.539C230.75 66.4133 230.792 66.3115 230.874 66.2335C230.956 66.1555 231.06 66.1165 231.186 66.1165C231.325 66.1165 231.435 66.1598 231.517 66.2465C231.604 66.3332 231.647 66.4307 231.647 66.539V67.332H232.538V66.539C232.538 66.1533 232.412 65.85 232.161 65.629C231.91 65.4037 231.58 65.291 231.173 65.291C230.753 65.291 230.41 65.408 230.146 65.642C229.886 65.876 229.756 66.175 229.756 66.539V69.906C229.756 70.2873 229.882 70.5907 230.133 70.816C230.384 71.0413 230.731 71.154 231.173 71.154Z" fill="#165395"/>
</g>
<path d="M27.7015 70.378L26.9867 69.6787L26.9828 69.6827L27.7015 70.378ZM30.0475 56.302L29.0988 56.6182L29.1003 56.6226L30.0475 56.302ZM27.46 51.403L26.6313 51.9627L26.6355 51.9689L26.6398 51.975L27.46 51.403ZM22.492 44.917L21.7193 45.5517L21.7221 45.5551L22.492 44.917ZM18.49 40.0525L17.7065 40.6739L17.7124 40.6813L17.7185 40.6887L18.49 40.0525ZM16.075 36.3955L15.1698 36.8204L15.175 36.8316L15.1806 36.8427L16.075 36.3955ZM22.63 35.8435H21.63V36.9223L22.7057 36.8406L22.63 35.8435ZM30.8065 35.2225L30.8822 36.2196L31.8065 36.1494V35.2225H30.8065ZM27.4945 25.0105L26.763 25.6923L26.763 25.6923L27.4945 25.0105ZM18.559 21.733L18.6057 22.7319L18.608 22.7318L18.559 21.733ZM12.28 23.5615L11.7409 22.7192L11.7358 22.7225L12.28 23.5615ZM8.3815 27.805L7.49427 27.3436L7.49193 27.3482L8.3815 27.805ZM8.899 40.501L7.99659 40.9319L7.99812 40.9351L8.899 40.501ZM14.6605 49.126L15.4366 48.4954L15.4359 48.4946L14.6605 49.126ZM18.9385 54.439L18.155 55.0604L18.1609 55.0678L18.167 55.0752L18.9385 54.439ZM21.319 57.613L20.4724 58.1452L20.4777 58.1537L20.4833 58.1622L21.319 57.613ZM22.354 59.6485L21.394 59.9285L21.3993 59.9467L21.4053 59.9647L22.354 59.6485ZM14.0395 58.1305H15.0395V57.052L13.9641 57.1333L14.0395 58.1305ZM5.8285 58.7515L5.75309 57.7543L4.87567 57.8207L4.82986 58.6994L5.8285 58.7515ZM8.692 69.7915L9.44929 69.1384L9.44929 69.1384L8.692 69.7915ZM18.5245 74.552C22.7602 74.552 26.1219 73.4491 28.4202 71.0733L26.9828 69.6827C25.1871 71.5389 22.4308 72.552 18.5245 72.552V74.552ZM28.4163 71.0773C30.7229 68.7195 31.8065 65.4103 31.8065 61.3045H29.8065C29.8065 65.0647 28.8201 67.8045 26.9867 69.6787L28.4163 71.0773ZM31.8065 61.3045C31.8065 59.3732 31.5409 57.5952 30.9947 55.9814L29.1003 56.6226C29.5661 57.9988 29.8065 59.5558 29.8065 61.3045H31.8065ZM30.9962 55.9858C30.4517 54.3524 29.5371 52.6333 28.2802 50.831L26.6398 51.975C27.8209 53.6687 28.6313 55.2156 29.0988 56.6182L30.9962 55.9858ZM28.2887 50.8433C27.0673 49.0348 25.3888 46.845 23.2619 44.2789L21.7221 45.5551C23.8272 48.095 25.4607 50.2292 26.6313 51.9627L28.2887 50.8433ZM23.2647 44.2823C21.6775 42.35 20.3431 40.728 19.2615 39.4163L17.7185 40.6887C18.7989 41.999 20.1325 43.62 21.7193 45.5517L23.2647 44.2823ZM19.2735 39.4311C18.2435 38.1324 17.4814 36.9723 16.9694 35.9483L15.1806 36.8427C15.7726 38.0267 16.6205 39.3046 17.7065 40.6739L19.2735 39.4311ZM16.9802 35.9706C16.5147 34.9787 16.2815 33.9281 16.2815 32.8075H14.2815C14.2815 34.2169 14.5773 35.5583 15.1698 36.8204L16.9802 35.9706ZM16.2815 32.8075C16.2815 31.4991 16.5465 30.7028 16.9089 30.248C17.2366 29.8366 17.7576 29.564 18.6625 29.564V27.564C17.3134 27.564 16.1439 27.9986 15.3446 29.0017C14.58 29.9615 14.2815 31.2869 14.2815 32.8075H16.2815ZM18.6625 29.564C19.1655 29.564 19.5584 29.6775 19.8765 29.8721C20.197 30.068 20.4975 30.3806 20.7601 30.8624C21.3017 31.8562 21.63 33.4751 21.63 35.8435H23.63C23.63 33.3589 23.2971 31.3381 22.5162 29.9053C22.1175 29.1739 21.5915 28.5765 20.92 28.1659C20.2463 27.7538 19.482 27.564 18.6625 27.564V29.564ZM22.7057 36.8406L30.8822 36.2196L30.7308 34.2254L22.5543 34.8464L22.7057 36.8406ZM31.8065 35.2225C31.8065 30.6254 30.6619 26.9422 28.226 24.3287L26.763 25.6923C28.7431 27.8168 29.8065 30.9416 29.8065 35.2225H31.8065ZM28.226 24.3287C25.7842 21.7088 22.5011 20.5383 18.51 20.7342L18.608 22.7318C22.1149 22.5597 24.7888 23.5742 26.763 25.6923L28.226 24.3287ZM18.5123 20.7341C15.9118 20.8556 13.6408 21.5033 11.7409 22.7192L12.8191 24.4038C14.3692 23.4117 16.2842 22.8404 18.6057 22.7319L18.5123 20.7341ZM11.7358 22.7225C9.8953 23.9164 8.47458 25.4585 7.49428 27.3436L9.26872 28.2664C10.0824 26.7015 11.2607 25.4146 12.8242 24.4005L11.7358 22.7225ZM7.49193 27.3482C6.54286 29.1964 6.0705 31.1937 6.0705 33.325H8.0705C8.0705 31.5003 8.47214 29.8176 9.27107 28.2618L7.49193 27.3482ZM6.0705 33.325C6.0705 35.7395 6.73004 38.2793 7.99659 40.9319L9.80141 40.0701C8.62996 37.6167 8.0705 35.3725 8.0705 33.325H6.0705ZM7.99812 40.9351C9.26304 43.5604 11.2348 46.5027 13.8851 49.7574L15.4359 48.4946C12.8422 45.3093 10.973 42.5016 9.79988 40.0669L7.99812 40.9351ZM13.8844 49.7566C15.6773 51.9633 17.1005 53.7308 18.155 55.0604L19.722 53.8176C18.6605 52.4792 17.2317 50.7047 15.4366 48.4954L13.8844 49.7566ZM18.167 55.0752C19.2383 56.3745 20.0002 57.394 20.4724 58.1452L22.1656 57.0808C21.6258 56.222 20.8007 55.1255 19.71 53.8028L18.167 55.0752ZM20.4833 58.1622C20.9892 58.9321 21.2733 59.5147 21.394 59.9285L23.314 59.3685C23.1127 58.6783 22.7068 57.9039 22.1547 57.0638L20.4833 58.1622ZM21.4053 59.9647C21.5508 60.4011 21.63 60.902 21.63 61.477H23.63C23.63 60.718 23.5252 59.9999 23.3027 59.3323L21.4053 59.9647ZM21.63 61.477C21.63 63.1176 21.2965 64.1629 20.7979 64.7841C20.333 65.3633 19.6044 65.721 18.421 65.721V67.721C20.0436 67.721 21.4195 67.2047 22.3576 66.0359C23.262 64.9091 23.63 63.3324 23.63 61.477H21.63ZM18.421 65.721C17.7886 65.721 17.3016 65.592 16.9219 65.3767C16.5457 65.1635 16.2195 64.8343 15.9524 64.3446L14.1966 65.3024C14.6195 66.0777 15.196 66.6973 15.9354 67.1165C16.6712 67.5337 17.5124 67.721 18.421 67.721V65.721ZM15.9524 64.3446C15.3939 63.3207 15.0395 61.3174 15.0395 58.1305H13.0395C13.0395 61.3376 13.3751 63.7963 14.1966 65.3024L15.9524 64.3446ZM13.9641 57.1333L5.75309 57.7543L5.90392 59.7487L14.1149 59.1277L13.9641 57.1333ZM4.82986 58.6994C4.56966 63.6906 5.5399 67.6676 7.93471 70.4446L9.44929 69.1384C7.5201 66.9014 6.58134 63.5184 6.82714 58.8036L4.82986 58.6994ZM7.93471 70.4446C10.3439 73.2382 13.9415 74.552 18.5245 74.552V72.552C14.3215 72.552 11.3641 71.3588 9.44929 69.1384L7.93471 70.4446ZM35.2166 73H34.2166V74H35.2166V73ZM43.6001 73V74H44.6001V73H43.6001ZM43.6001 50.92V49.92H42.6001V50.92H43.6001ZM51.2591 50.92H52.2591V49.92H51.2591V50.92ZM51.2591 73H50.2591V74H51.2591V73ZM59.6426 73V74H60.6426V73H59.6426ZM59.6426 22.285H60.6426V21.285H59.6426V22.285ZM51.2591 22.285V21.285H50.2591V22.285H51.2591ZM51.2591 43.261V44.261H52.2591V43.261H51.2591ZM43.6001 43.261H42.6001V44.261H43.6001V43.261ZM43.6001 22.285H44.6001V21.285H43.6001V22.285ZM35.2166 22.285V21.285H34.2166V22.285H35.2166ZM35.2166 74H43.6001V72H35.2166V74ZM44.6001 73V50.92H42.6001V73H44.6001ZM43.6001 51.92H51.2591V49.92H43.6001V51.92ZM50.2591 50.92V73H52.2591V50.92H50.2591ZM51.2591 74H59.6426V72H51.2591V74ZM60.6426 73V22.285H58.6426V73H60.6426ZM59.6426 21.285H51.2591V23.285H59.6426V21.285ZM50.2591 22.285V43.261H52.2591V22.285H50.2591ZM51.2591 42.261H43.6001V44.261H51.2591V42.261ZM44.6001 43.261V22.285H42.6001V43.261H44.6001ZM43.6001 21.285H35.2166V23.285H43.6001V21.285ZM34.2166 22.285V73H36.2166V22.285H34.2166ZM84.6438 70.4815L83.9523 69.759L83.9485 69.7628L84.6438 70.4815ZM87.7833 62.2015L86.7832 62.2015L86.7833 62.2147L87.7833 62.2015ZM84.6093 24.8035L83.91 25.5185L83.918 25.5261L84.6093 24.8035ZM68.2908 24.8035L68.9899 25.5185L68.99 25.5184L68.2908 24.8035ZM65.2548 33.0835L66.2548 33.0835L66.2547 33.0703L65.2548 33.0835ZM68.3253 70.516L67.6181 71.2232L67.6261 71.231L68.3253 70.516ZM76.4328 74.552C80.0108 74.552 83.01 73.4533 85.339 71.2002L83.9485 69.7628C82.0455 71.6037 79.5707 72.552 76.4328 72.552V74.552ZM85.3352 71.204C87.7095 68.9317 88.8321 65.8863 88.7832 62.1883L86.7833 62.2147C86.8264 65.4627 85.856 67.9373 83.9524 69.759L85.3352 71.204ZM88.7833 62.2015V33.0835H86.7833V62.2015H88.7833ZM88.7833 33.0835C88.7833 29.3717 87.6515 26.3297 85.3005 24.0809L83.918 25.5261C85.799 27.3253 86.7833 29.8033 86.7833 33.0835H88.7833ZM85.3085 24.0886C83.0009 21.8317 80.0106 20.733 76.4328 20.733V22.733C79.5709 22.733 82.0316 23.6813 83.91 25.5184L85.3085 24.0886ZM76.4328 20.733C72.8758 20.733 69.8978 21.833 67.5915 24.0886L68.99 25.5184C70.8697 23.68 73.3197 22.733 76.4328 22.733V20.733ZM67.5916 24.0885C65.2861 26.3428 64.206 29.3882 64.2548 33.0967L66.2547 33.0703C66.2115 29.7868 67.1554 27.3122 68.9899 25.5185L67.5916 24.0885ZM64.2548 33.0835V62.2015H66.2548V33.0835H64.2548ZM64.2548 62.2015C64.2548 65.9039 65.3457 68.9507 67.6181 71.2231L69.0324 69.8089C67.2108 67.9873 66.2548 65.4911 66.2548 62.2015H64.2548ZM67.6261 71.231C69.9116 73.4656 72.8793 74.552 76.4328 74.552V72.552C73.3162 72.552 70.8789 71.6144 69.0244 69.801L67.6261 71.231ZM76.3983 65.307C75.5731 65.307 75.106 65.0533 74.8089 64.669C74.474 64.2358 74.2243 63.469 74.2243 62.2015H72.2243C72.2243 63.671 72.5035 64.9569 73.2266 65.8923C73.9875 66.8764 75.1074 67.307 76.3983 67.307V65.307ZM74.2243 62.2015V33.0835H72.2243V62.2015H74.2243ZM74.2243 33.0835C74.2243 31.816 74.474 31.0492 74.8089 30.616C75.106 30.2317 75.5731 29.978 76.3983 29.978V27.978C75.1074 27.978 73.9875 28.4086 73.2266 29.3927C72.5035 30.3281 72.2243 31.614 72.2243 33.0835H74.2243ZM76.3983 29.978C77.2388 29.978 77.7152 30.2344 78.0167 30.6201C78.3548 31.0528 78.6068 31.8178 78.6068 33.0835H80.6068C80.6068 31.6122 80.3239 30.3245 79.5925 29.3886C78.8245 28.4058 77.6967 27.978 76.3983 27.978V29.978ZM78.6068 33.0835V62.2015H80.6068V33.0835H78.6068ZM78.6068 62.2015C78.6068 63.4672 78.3548 64.2322 78.0167 64.6649C77.7152 65.0506 77.2388 65.307 76.3983 65.307V67.307C77.6967 67.307 78.8245 66.8792 79.5925 65.8964C80.3239 64.9605 80.6068 63.6728 80.6068 62.2015H78.6068ZM94.3787 73H93.3787V74H94.3787V73ZM114.389 73V74H115.389V73H114.389ZM114.389 65.341H115.389V64.341H114.389V65.341ZM102.762 65.341H101.762V66.341H102.762V65.341ZM102.762 51.403V50.403H101.762V51.403H102.762ZM111.111 51.403V52.403H112.111V51.403H111.111ZM111.111 43.261H112.111V42.261H111.111V43.261ZM102.762 43.261H101.762V44.261H102.762V43.261ZM102.762 29.944V28.944H101.762V29.944H102.762ZM114.389 29.944V30.944H115.389V29.944H114.389ZM114.389 22.285H115.389V21.285H114.389V22.285ZM94.3787 22.285V21.285H93.3787V22.285H94.3787ZM94.3787 74H114.389V72H94.3787V74ZM115.389 73V65.341H113.389V73H115.389ZM114.389 64.341H102.762V66.341H114.389V64.341ZM103.762 65.341V51.403H101.762V65.341H103.762ZM102.762 52.403H111.111V50.403H102.762V52.403ZM112.111 51.403V43.261H110.111V51.403H112.111ZM111.111 42.261H102.762V44.261H111.111V42.261ZM103.762 43.261V29.944H101.762V43.261H103.762ZM102.762 30.944H114.389V28.944H102.762V30.944ZM115.389 29.944V22.285H113.389V29.944H115.389ZM114.389 21.285H94.3787V23.285H114.389V21.285ZM93.3787 22.285V73H95.3787V22.285H93.3787ZM118.973 73H117.973V74H118.973V73ZM139.294 73V74H140.294V73H139.294ZM139.294 66.1H140.294V65.1H139.294V66.1ZM127.357 66.1H126.357V67.1H127.357V66.1ZM127.357 22.285H128.357V21.285H127.357V22.285ZM118.973 22.285V21.285H117.973V22.285H118.973ZM118.973 74H139.294V72H118.973V74ZM140.294 73V66.1H138.294V73H140.294ZM139.294 65.1H127.357V67.1H139.294V65.1ZM128.357 66.1V22.285H126.357V66.1H128.357ZM127.357 21.285H118.973V23.285H127.357V21.285ZM117.973 22.285V73H119.973V22.285H117.973ZM141.152 73L140.168 72.8206L139.953 74H141.152V73ZM149.259 73V74H150.109L150.246 73.1612L149.259 73ZM150.95 62.65V61.65H150.1L149.963 62.4888L150.95 62.65ZM160.23 62.65L161.216 62.4856L161.077 61.65H160.23V62.65ZM161.955 73L160.969 73.1644L161.108 74H161.955V73ZM170.063 73V74H171.262L171.046 72.82L170.063 73ZM160.782 22.285L161.766 22.105L161.616 21.285H160.782V22.285ZM150.398 22.285V21.285H149.563L149.414 22.1056L150.398 22.285ZM152.261 54.784L151.278 54.5979L151.053 55.784H152.261V54.784ZM154.986 40.3975L155.969 40.5836L155.971 40.5728L155.972 40.5619L154.986 40.3975ZM155.297 38.5345V37.5345H154.449L154.31 38.3701L155.297 38.5345ZM155.918 38.5345L156.904 38.3701L156.765 37.5345H155.918V38.5345ZM156.228 40.3975L155.242 40.5619L155.243 40.5716L155.245 40.5814L156.228 40.3975ZM158.919 54.784V55.784H160.123L159.902 54.6001L158.919 54.784ZM141.152 74H149.259V72H141.152V74ZM150.246 73.1612L151.936 62.8112L149.963 62.4888L148.272 72.8388L150.246 73.1612ZM150.95 63.65H160.23V61.65H150.95V63.65ZM159.244 62.8144L160.969 73.1644L162.941 72.8356L161.216 62.4856L159.244 62.8144ZM161.955 74H170.063V72H161.955V74ZM171.046 72.82L161.766 22.105L159.798 22.465L169.079 73.18L171.046 72.82ZM160.782 21.285H150.398V23.285H160.782V21.285ZM149.414 22.1056L140.168 72.8206L142.135 73.1794L151.381 22.4644L149.414 22.1056ZM153.243 54.9701L155.969 40.5836L154.003 40.2114L151.278 54.5979L153.243 54.9701ZM155.972 40.5619L156.283 38.6989L154.31 38.3701L154 40.2331L155.972 40.5619ZM155.297 39.5345H155.918V37.5345H155.297V39.5345ZM154.931 38.6989L155.242 40.5619L157.214 40.2331L156.904 38.3701L154.931 38.6989ZM155.245 40.5814L157.936 54.9679L159.902 54.6001L157.211 40.2136L155.245 40.5814ZM158.919 53.784H152.261V55.784H158.919V53.784ZM173.756 73H172.756V74H173.756V73ZM194.076 73V74H195.076V73H194.076ZM194.076 66.1H195.076V65.1H194.076V66.1ZM182.139 66.1H181.139V67.1H182.139V66.1ZM182.139 22.285H183.139V21.285H182.139V22.285ZM173.756 22.285V21.285H172.756V22.285H173.756ZM173.756 74H194.076V72H173.756V74ZM195.076 73V66.1H193.076V73H195.076ZM194.076 65.1H182.139V67.1H194.076V65.1ZM183.139 66.1V22.285H181.139V66.1H183.139ZM182.139 21.285H173.756V23.285H182.139V21.285ZM172.756 22.285V73H174.756V22.285H172.756ZM195.934 73L194.95 72.8206L194.735 74H195.934V73ZM204.041 73V74H204.891L205.028 73.1612L204.041 73ZM205.732 62.65V61.65H204.882L204.745 62.4888L205.732 62.65ZM215.012 62.65L215.999 62.4856L215.859 61.65H215.012V62.65ZM216.737 73L215.751 73.1644L215.89 74H216.737V73ZM224.845 73V74H226.044L225.828 72.82L224.845 73ZM215.564 22.285L216.548 22.105L216.398 21.285H215.564V22.285ZM205.18 22.285V21.285H204.346L204.196 22.1056L205.18 22.285ZM207.043 54.784L206.06 54.5979L205.836 55.784H207.043V54.784ZM209.768 40.3975L210.751 40.5836L210.753 40.5728L210.755 40.5619L209.768 40.3975ZM210.079 38.5345V37.5345H209.232L209.092 38.3701L210.079 38.5345ZM210.7 38.5345L211.686 38.3701L211.547 37.5345H210.7V38.5345ZM211.01 40.3975L210.024 40.5619L210.025 40.5716L210.027 40.5814L211.01 40.3975ZM213.701 54.784V55.784H214.906L214.684 54.6001L213.701 54.784ZM195.934 74H204.041V72H195.934V74ZM205.028 73.1612L206.719 62.8112L204.745 62.4888L203.054 72.8388L205.028 73.1612ZM205.732 63.65H215.012V61.65H205.732V63.65ZM214.026 62.8144L215.751 73.1644L217.724 72.8356L215.999 62.4856L214.026 62.8144ZM216.737 74H224.845V72H216.737V74ZM225.828 72.82L216.548 22.105L214.581 22.465L223.861 73.18L225.828 72.82ZM215.564 21.285H205.18V23.285H215.564V21.285ZM204.196 22.1056L194.95 72.8206L196.918 73.1794L206.164 22.4644L204.196 22.1056ZM208.025 54.9701L210.751 40.5836L208.786 40.2114L206.06 54.5979L208.025 54.9701ZM210.755 40.5619L211.065 38.6989L209.092 38.3701L208.782 40.2331L210.755 40.5619ZM210.079 39.5345H210.7V37.5345H210.079V39.5345ZM209.713 38.6989L210.024 40.5619L211.997 40.2331L211.686 38.3701L209.713 38.6989ZM210.027 40.5814L212.718 54.9679L214.684 54.6001L211.993 40.2136L210.027 40.5814ZM213.701 53.784H207.043V55.784H213.701V53.784ZM233.454 72.727L233.79 73.6691L233.793 73.668L233.454 72.727ZM235.326 71.674L235.965 72.4432L235.969 72.4402L235.326 71.674ZM236.587 70.114L235.701 69.6512L235.698 69.6564L236.587 70.114ZM236.587 66.3375L235.698 66.7952L235.701 66.8003L236.587 66.3375ZM235.326 64.7775L235.969 64.0113L235.969 64.0113L235.326 64.7775ZM233.454 63.7245L233.114 64.6648L233.121 64.6673L233.454 63.7245ZM228.924 63.7245L229.264 64.6648L229.264 64.6648L228.924 63.7245ZM227.058 64.784L227.7 65.5507L227.701 65.5502L227.058 64.784ZM225.804 66.3375L224.915 65.8799L224.915 65.8799L225.804 66.3375ZM225.804 70.114L224.915 70.5716L224.915 70.5716L225.804 70.114ZM227.058 71.674L226.413 72.4377L226.419 72.4432L227.058 71.674ZM228.917 72.727L228.575 73.6666L228.582 73.6691L228.917 72.727ZM229.223 72.038L228.892 72.9819L228.901 72.9846L229.223 72.038ZM227.617 71.154L228.248 70.3781L228.248 70.3781L227.617 71.154ZM226.532 69.841L227.418 69.3784L227.418 69.3784L226.532 69.841ZM226.532 66.617L227.418 67.0796L227.42 67.0764L226.532 66.617ZM227.617 65.2975L228.248 66.0734L228.248 66.0734L227.617 65.2975ZM229.223 64.4135L228.895 63.4689L228.893 63.4696L229.223 64.4135ZM233.149 64.4135L232.821 65.3581L232.823 65.3588L233.149 64.4135ZM234.767 65.304L234.132 66.0764L234.14 66.0828L234.767 65.304ZM235.866 66.6235L234.981 67.0889L234.982 67.0921L235.866 66.6235ZM235.866 69.8345L236.749 70.3031L236.749 70.3031L235.866 69.8345ZM234.767 71.1475L234.14 70.3687L234.136 70.3716L234.767 71.1475ZM233.149 72.0315L232.823 71.0862L232.821 71.0869L233.149 72.0315ZM232.161 70.842L232.818 71.5955L232.826 71.5887L232.161 70.842ZM232.518 69.113H233.518V68.113H232.518V69.113ZM231.66 69.113V68.113H230.66V69.113H231.66ZM231.53 70.1855L230.823 69.4784L230.823 69.4784L231.53 70.1855ZM230.867 70.205L230.181 70.932L230.201 70.9516L230.223 70.9699L230.867 70.205ZM231.517 66.2465L230.792 66.9352L230.801 66.9445L230.81 66.9536L231.517 66.2465ZM231.647 67.332H230.647V68.332H231.647V67.332ZM232.538 67.332V68.332H233.538V67.332H232.538ZM232.161 65.629L231.493 66.3736L231.501 66.38L232.161 65.629ZM230.146 65.642L229.483 64.8932L229.477 64.8987L230.146 65.642ZM230.133 70.816L229.465 71.5606L229.465 71.5606L230.133 70.816ZM231.186 74.104C232.097 74.104 232.968 73.9615 233.79 73.6691L233.119 71.7849C232.528 71.9951 231.886 72.104 231.186 72.104V74.104ZM233.793 73.668C234.604 73.3762 235.332 72.9697 235.965 72.4432L234.687 70.9048C234.246 71.271 233.726 71.5665 233.116 71.786L233.793 73.668ZM235.969 72.4402C236.602 71.9091 237.109 71.286 237.476 70.5716L235.698 69.6564C235.459 70.1207 235.125 70.5375 234.684 70.9078L235.969 72.4402ZM237.474 70.5768C237.856 69.844 238.049 69.0569 238.049 68.229H236.049C236.049 68.7358 235.934 69.2053 235.701 69.6512L237.474 70.5768ZM238.049 68.229C238.049 67.3979 237.857 66.6084 237.474 65.8747L235.701 66.8003C235.933 67.2452 236.049 67.7168 236.049 68.229H238.049ZM237.476 65.8799C237.109 65.1655 236.602 64.5424 235.969 64.0113L234.684 65.5437C235.125 65.914 235.459 66.3308 235.698 66.7951L237.476 65.8799ZM235.969 64.0113C235.333 63.4782 234.603 63.0699 233.788 62.7817L233.121 64.6673C233.727 64.8817 234.245 65.1755 234.684 65.5437L235.969 64.0113ZM233.795 62.7842C232.972 62.4862 232.099 62.341 231.186 62.341V64.341C231.884 64.341 232.525 64.4514 233.114 64.6648L233.795 62.7842ZM231.186 62.341C230.276 62.341 229.406 62.4865 228.584 62.7842L229.264 64.6648C229.854 64.4512 230.492 64.341 231.186 64.341V62.341ZM228.584 62.7842C227.775 63.0769 227.049 63.4866 226.416 64.0178L227.701 65.5502C228.142 65.18 228.66 64.8834 229.264 64.6648L228.584 62.7842ZM226.416 64.0173C225.786 64.5449 225.282 65.1663 224.915 65.8799L226.693 66.7951C226.932 66.33 227.264 65.9157 227.7 65.5507L226.416 64.0173ZM224.915 65.8799C224.538 66.6127 224.349 67.4003 224.349 68.229H226.349C226.349 67.7143 226.464 67.241 226.693 66.7951L224.915 65.8799ZM224.349 68.229C224.349 69.0544 224.538 69.8398 224.915 70.5716L226.693 69.6564C226.463 69.2096 226.349 68.7383 226.349 68.229H224.349ZM224.915 70.5716C225.281 71.2841 225.785 71.9066 226.413 72.4376L227.704 70.9104C227.266 70.5401 226.933 70.1225 226.693 69.6564L224.915 70.5716ZM226.419 72.4432C227.051 72.968 227.773 73.3744 228.575 73.6666L229.26 71.7874C228.658 71.5683 228.14 71.2727 227.697 70.9048L226.419 72.4432ZM228.582 73.6691C229.404 73.9615 230.274 74.104 231.186 74.104V72.104C230.485 72.104 229.843 71.9951 229.253 71.7849L228.582 73.6691ZM231.186 71.35C230.589 71.35 230.044 71.2613 229.545 71.0914L228.901 72.9846C229.623 73.2307 230.387 73.35 231.186 73.35V71.35ZM229.553 71.0941C229.047 70.9171 228.616 70.6768 228.248 70.3781L226.986 71.9299C227.546 72.3852 228.185 72.7342 228.893 72.9819L229.553 71.0941ZM228.248 70.3781C227.883 70.0815 227.612 69.7485 227.418 69.3784L225.645 70.3036C225.972 70.9302 226.424 71.4725 226.986 71.9299L228.248 70.3781ZM227.418 69.3784C227.235 69.0266 227.142 68.6485 227.142 68.229H225.142C225.142 68.9622 225.309 69.6587 225.645 70.3036L227.418 69.3784ZM227.142 68.229C227.142 67.8095 227.235 67.4314 227.418 67.0796L225.645 66.1544C225.309 66.7993 225.142 67.4958 225.142 68.229H227.142ZM227.42 67.0764C227.613 66.7026 227.885 66.3686 228.248 66.0734L226.986 64.5216C226.422 64.9804 225.97 65.5261 225.644 66.1576L227.42 67.0764ZM228.248 66.0734C228.616 65.7747 229.047 65.5344 229.553 65.3574L228.893 63.4696C228.185 63.7173 227.546 64.0663 226.986 64.5216L228.248 66.0734ZM229.551 65.3581C230.049 65.1852 230.591 65.095 231.186 65.095V63.095C230.385 63.095 229.619 63.2171 228.895 63.4689L229.551 65.3581ZM231.186 65.095C231.781 65.095 232.323 65.1852 232.821 65.3581L233.477 63.4689C232.753 63.2171 231.986 63.095 231.186 63.095V65.095ZM232.823 65.3588C233.335 65.5356 233.768 65.7767 234.132 66.0763L235.403 64.5317C234.84 64.0686 234.193 63.7161 233.475 63.4682L232.823 65.3588ZM234.14 66.0828C234.508 66.3791 234.784 66.7142 234.981 67.0889L236.751 66.1581C236.419 65.5275 235.963 64.9829 235.395 64.5252L234.14 66.0828ZM234.982 67.0921C235.169 67.444 235.262 67.818 235.262 68.229H237.262C237.262 67.496 237.091 66.7997 236.749 66.1549L234.982 67.0921ZM235.262 68.229C235.262 68.64 235.169 69.014 234.982 69.3659L236.749 70.3031C237.091 69.6583 237.262 68.962 237.262 68.229H235.262ZM234.982 69.3659C234.786 69.7369 234.51 70.0711 234.14 70.3687L235.395 71.9263C235.961 71.4699 236.417 70.9288 236.749 70.3031L234.982 69.3659ZM234.136 70.3716C233.771 70.6684 233.337 70.9086 232.823 71.0862L233.475 72.9768C234.191 72.7297 234.836 72.3806 235.398 71.9234L234.136 70.3716ZM232.821 71.0869C232.323 71.2598 231.781 71.35 231.186 71.35V73.35C231.986 73.35 232.753 73.2279 233.477 72.9761L232.821 71.0869ZM231.173 72.154C231.754 72.154 232.345 72.0084 232.818 71.5954L231.503 70.0886C231.5 70.0916 231.432 70.154 231.173 70.154V72.154ZM232.826 71.5887C233.335 71.135 233.518 70.5149 233.518 69.906H231.518C231.518 70.0173 231.502 70.0729 231.495 70.0919C231.49 70.1055 231.49 70.1007 231.496 70.0953L232.826 71.5887ZM233.518 69.906V69.113H231.518V69.906H233.518ZM232.518 68.113H231.66V70.113H232.518V68.113ZM230.66 69.113V69.906H232.66V69.113H230.66ZM230.66 69.906C230.66 69.8056 230.683 69.7102 230.721 69.6289C230.757 69.5512 230.799 69.5022 230.823 69.4784L232.237 70.8926C232.466 70.6642 232.66 70.3293 232.66 69.906H230.66ZM230.823 69.4784C230.891 69.4102 230.97 69.3636 231.045 69.3368C231.116 69.3114 231.168 69.309 231.186 69.309V71.309C231.524 71.309 231.921 71.209 232.237 70.8926L230.823 69.4784ZM231.186 69.309C231.209 69.309 231.257 69.3121 231.319 69.3324C231.384 69.3534 231.451 69.3889 231.511 69.4401L230.223 70.9699C230.521 71.221 230.871 71.309 231.186 71.309V69.309ZM231.554 69.478C231.622 69.5422 231.676 69.6226 231.711 69.7106C231.744 69.7952 231.75 69.8655 231.75 69.906H229.75C229.75 70.2555 229.868 70.6369 230.181 70.932L231.554 69.478ZM231.75 69.906V66.539H229.75V69.906H231.75ZM231.75 66.539C231.75 66.5863 231.742 66.6591 231.708 66.7432C231.673 66.8295 231.621 66.9032 231.562 66.9595L230.186 65.5075C229.882 65.7958 229.75 66.1715 229.75 66.539H231.75ZM231.562 66.9595C231.508 67.0104 231.441 67.0536 231.365 67.0821C231.291 67.1098 231.227 67.1165 231.186 67.1165V65.1165C230.834 65.1165 230.475 65.2339 230.186 65.5075L231.562 66.9595ZM231.186 67.1165C231.151 67.1165 231.087 67.1109 231.008 67.08C230.926 67.0478 230.851 66.9972 230.792 66.9352L232.242 65.5578C231.941 65.2402 231.551 65.1165 231.186 65.1165V67.1165ZM230.81 66.9536C230.78 66.9229 230.736 66.8695 230.701 66.7908C230.665 66.7096 230.647 66.6225 230.647 66.539H232.647C232.647 66.1298 232.472 65.7867 232.224 65.5394L230.81 66.9536ZM230.647 66.539V67.332H232.647V66.539H230.647ZM231.647 68.332H232.538V66.332H231.647V68.332ZM233.538 67.332V66.539H231.538V67.332H233.538ZM233.538 66.539C233.538 65.9143 233.322 65.3187 232.821 64.878L231.501 66.38C231.514 66.3915 231.517 66.3974 231.52 66.405C231.524 66.4161 231.538 66.4549 231.538 66.539H233.538ZM232.828 64.8844C232.357 64.4621 231.773 64.291 231.173 64.291V66.291C231.387 66.291 231.462 66.3452 231.493 66.3736L232.828 64.8844ZM231.173 64.291C230.557 64.291 229.964 64.4676 229.483 64.8932L230.809 66.3908C230.857 66.3484 230.948 66.291 231.173 66.291V64.291ZM229.477 64.8987C228.997 65.3309 228.756 65.9046 228.756 66.539H230.756C230.756 66.4782 230.766 66.4503 230.77 66.4405C230.774 66.4317 230.783 66.4136 230.815 66.3853L229.477 64.8987ZM228.756 66.539V69.906H230.756V66.539H228.756ZM228.756 69.906C228.756 70.5306 228.974 71.1199 229.465 71.5606L230.8 70.0714C230.783 70.0558 230.778 70.0462 230.774 70.0368C230.769 70.0244 230.756 69.9863 230.756 69.906H228.756ZM229.465 71.5606C229.951 71.9959 230.562 72.154 231.173 72.154V70.154C230.899 70.154 230.818 70.0868 230.8 70.0714L229.465 71.5606Z" fill="#E4E2E2"/>
</g>
<defs>
<filter id="filter0_bf" x="4.84059" y="17.2265" width="245.611" height="61.3415" filterUnits="userSpaceOnUse" color-interpolation-filters="sRGB">
<feFlood flood-opacity="0" result="BackgroundImageFix"/>
<feGaussianBlur in="BackgroundImage" stdDeviation="2"/>
<feComposite in2="SourceAlpha" operator="in" result="effect1_backgroundBlur"/>
<feBlend mode="normal" in="SourceGraphic" in2="effect1_backgroundBlur" result="shape"/>
<feGaussianBlur stdDeviation="2" result="effect2_foregroundBlur"/>
</filter>
<filter id="filter1_bf" x="-3.15941" y="17.2265" width="245.611" height="61.3415" filterUnits="userSpaceOnUse" color-interpolation-filters="sRGB">
<feFlood flood-opacity="0" result="BackgroundImageFix"/>
<feGaussianBlur in="BackgroundImage" stdDeviation="2"/>
<feComposite in2="SourceAlpha" operator="in" result="effect1_backgroundBlur"/>
<feBlend mode="normal" in="SourceGraphic" in2="effect1_backgroundBlur" result="shape"/>
<feGaussianBlur stdDeviation="2" result="effect2_foregroundBlur"/>
</filter>
<filter id="filter2_i" x="4.78882" y="20.7132" width="233.26" height="53.8388" filterUnits="userSpaceOnUse" color-interpolation-filters="sRGB">
<feFlood flood-opacity="0" result="BackgroundImageFix"/>
<feBlend mode="normal" in="SourceGraphic" in2="BackgroundImageFix" result="shape"/>
<feColorMatrix in="SourceAlpha" type="matrix" values="0 0 0 0 0 0 0 0 0 0 0 0 0 0 0 0 0 0 127 0" result="hardAlpha"/>
<feOffset dx="6"/>
<feComposite in2="hardAlpha" operator="arithmetic" k2="-1" k3="1"/>
<feColorMatrix type="matrix" values="0 0 0 0 0 0 0 0 0 0 0 0 0 0 0 0 0 0 0.25 0"/>
<feBlend mode="normal" in2="shape" result="effect1_innerShadow"/>
</filter>
<clipPath id="clip0">
<rect width="250" height="100" fill="white"/>
</clipPath>
</defs>
</svg>
